<svg xmlns="http://www.w3.org/2000/svg" viewBox="0 0 1024 1024">
<g>
<path d="M 453.00 465.00 L 453.00 558.66 L 434.53 558.70 L 416.06 558.75 L 415.97 331.00 L 442.90 331.00 C472.39,331.00 481.16,332.00 489.65,336.35 C499.76,341.53 506.74,351.88 509.01,365.05 C509.73,369.26 510.01,382.32 509.80,401.55 C509.47,430.29 509.36,431.74 507.08,437.50 C504.84,443.16 497.48,452.08 494.18,453.13 C493.17,453.45 495.17,465.22 502.93,504.56 C508.47,532.63 513.00,556.24 513.00,557.04 C512.99,559.14 476.41,559.95 476.19,557.86 C476.08,556.80 469.14,517.19 460.48,468.25 C459.97,465.32 459.57,465.00 456.45,465.00 ZM 337.00 558.25 C337.00,558.66 328.49,559.00 318.09,559.00 L 299.17 559.00 L 299.57 556.25 C300.36,550.70 318.02,416.78 320.96,394.00 C322.63,381.08 325.14,362.40 326.54,352.50 C327.94,342.60 329.16,333.71 329.26,332.75 C329.42,331.14 331.31,331.00 353.63,331.00 L 377.84 331.00 L 378.41 333.75 C378.72,335.26 382.60,365.30 387.05,400.50 C391.49,435.70 397.79,485.64 401.06,511.49 C404.33,537.33 407.00,558.58 407.00,558.70 C407.00,558.83 398.63,558.86 388.40,558.79 C376.18,558.69 369.68,558.27 369.46,557.57 C369.27,556.98 368.63,548.40 368.04,538.50 C367.44,528.60 366.71,518.59 366.42,516.25 L 365.88 512.00 L 341.09 512.00 L 340.57 515.25 C340.14,517.95 336.99,555.85 337.00,558.25 ZM 181.27 559.53 C166.30,562.70 146.77,560.59 136.82,554.73 C132.41,552.13 125.89,546.00 127.54,546.00 C128.04,546.00 127.48,545.32 126.29,544.49 C125.11,543.66 123.10,540.40 121.84,537.24 C119.66,531.78 119.54,530.25 119.52,505.50 L 119.50 479.50 L 155.50 479.50 L 156.00 501.15 C156.59,526.68 156.71,527.00 165.58,527.00 C171.21,527.00 173.41,525.67 175.08,521.28 C176.36,517.92 176.22,484.37 174.91,479.50 C174.02,476.18 169.96,471.66 151.15,453.00 C118.90,421.02 118.56,420.25 119.22,382.00 C119.56,362.65 119.95,357.66 121.41,353.75 C122.39,351.14 123.62,349.00 124.15,349.00 C124.68,349.00 124.84,348.55 124.50,348.00 C124.16,347.45 126.74,344.14 130.24,340.65 C139.23,331.66 144.38,329.81 162.00,329.24 C172.52,328.90 176.93,329.17 182.00,330.48 C195.11,333.88 202.78,340.03 208.12,351.44 C211.68,359.05 213.10,371.75 212.43,390.00 L 211.97 402.50 L 176.18 403.04 L 176.05 386.89 C175.87,365.20 174.46,362.00 165.02,362.00 C161.99,362.00 160.26,362.64 158.45,364.45 C156.05,366.86 156.00,367.22 156.00,383.50 C156.00,396.54 156.34,400.79 157.57,403.30 C158.43,405.06 169.16,416.40 181.42,428.50 C212.28,458.97 212.94,460.29 213.73,493.00 C214.48,524.08 212.27,536.42 204.08,546.78 C199.46,552.63 190.67,557.54 181.27,559.53 ZM 283.00 367.00 L 283.00 559.00 L 245.00 559.00 L 245.00 367.00 L 220.02 367.00 L 220.32 331.00 L 309.00 331.00 L 309.00 367.00 ZM 580.00 367.00 L 580.00 559.00 L 543.00 559.00 L 543.00 367.00 L 516.00 367.00 L 516.00 331.00 L 606.00 331.00 L 606.00 367.00 ZM 453.00 365.00 L 453.00 432.00 L 455.75 431.98 C463.15,431.91 470.77,428.63 472.00,424.98 C473.07,421.77 473.12,376.43 472.04,372.80 C470.36,367.11 466.94,365.00 459.37,365.00 ZM 344.00 476.27 C344.00,477.79 345.15,478.00 353.50,478.00 C358.73,478.00 363.00,477.59 363.00,477.09 C363.00,476.59 361.44,461.18 359.52,442.84 C357.61,424.50 355.80,407.02 355.50,404.00 C355.21,400.98 354.60,396.02 354.15,393.00 C353.36,387.63 353.33,387.59 352.68,391.00 C352.00,394.62 344.00,473.18 344.00,476.27 Z" fill="rgb(1,106,219)"/>
<path d="M 896.00 325.00 L 896.00 583.00 L 634.00 583.00 L 633.93 575.75 C633.53,537.42 633.44,339.58 633.81,333.25 L 634.30 325.00 ZM 654.62 565.75 C652.61,569.17 656.24,565.99 665.39,556.33 C682.34,538.44 706.51,518.49 730.90,502.28 C745.80,492.37 768.87,480.67 777.98,478.39 C794.59,474.23 809.45,481.54 813.66,495.93 C815.69,502.89 814.96,511.64 810.95,528.06 C808.40,538.48 807.87,542.71 809.34,540.92 C810.94,538.96 826.25,509.18 828.06,504.50 C831.29,496.16 831.45,480.66 828.37,473.95 C823.57,463.47 815.06,457.81 801.04,455.76 C791.98,454.44 791.21,453.50 793.60,446.71 C796.70,437.92 804.66,428.29 810.86,425.81 C812.31,425.23 819.64,424.16 827.14,423.43 C847.13,421.47 857.70,416.95 863.78,407.75 C866.23,404.05 866.49,402.79 866.42,395.07 C866.35,386.96 866.01,385.67 860.09,371.00 C853.59,354.89 851.31,350.76 852.35,357.00 C853.45,363.54 854.29,388.56 853.58,393.34 C852.05,403.54 842.16,409.33 829.82,407.26 C820.86,405.75 814.28,403.04 800.00,394.97 C769.55,377.76 759.62,374.28 744.13,375.42 C735.17,376.07 723.75,379.42 715.50,383.81 C709.90,386.79 692.00,404.10 692.00,406.53 C692.00,407.55 692.44,407.82 693.25,407.30 C693.94,406.86 698.42,403.89 703.21,400.71 C718.58,390.50 730.39,386.50 743.00,387.23 C761.07,388.27 771.97,399.13 771.99,416.12 C772.00,422.90 771.60,424.54 768.31,431.12 C765.02,437.72 761.60,441.57 736.05,467.50 C698.24,505.86 680.47,526.63 663.31,552.50 C658.93,559.10 655.02,565.06 654.62,565.75 ZM 839.00 558.41 C843.66,560.43 847.65,560.34 852.54,558.12 C863.40,553.19 866.88,540.85 860.33,530.49 C853.76,520.10 836.68,520.67 830.52,531.49 C827.17,537.37 826.73,540.54 828.42,546.37 C830.07,552.06 833.59,556.06 839.00,558.41 ZM 797.01 375.41 C801.81,377.49 806.67,377.33 811.98,374.92 C817.61,372.37 819.72,370.47 822.11,365.79 C825.71,358.73 823.82,348.79 817.85,343.37 C814.64,340.45 809.58,338.00 806.80,338.01 C804.62,338.02 804.67,338.15 807.63,340.49 C809.36,341.85 811.53,344.86 812.46,347.18 C817.85,360.66 803.32,372.02 790.25,364.55 C785.74,361.97 785.14,362.44 787.40,366.80 C789.30,370.45 792.80,373.58 797.01,375.41 ZM 750.47 420.20 C753.10,425.07 754.33,423.96 753.77,417.20 C753.40,412.74 752.78,411.21 750.60,409.33 C745.23,404.71 734.51,407.72 726.48,416.10 C724.29,418.38 722.95,420.06 723.50,419.82 C724.05,419.59 726.75,418.33 729.50,417.03 C735.51,414.19 742.56,413.42 746.00,415.23 C747.38,415.96 749.39,418.19 750.47,420.20 Z" fill="rgb(2,169,98)"/>
<path d="M 304.28 691.95 L 298.27 708.50 L 289.17 708.79 L 280.06 709.07 L 283.44 699.79 C285.29,694.68 291.85,676.78 298.01,660.00 C304.16,643.22 309.65,628.26 310.20,626.75 L 311.20 624.00 L 331.66 624.00 L 332.72 627.25 C333.30,629.04 340.08,647.15 347.77,667.50 C355.47,687.85 362.07,705.51 362.45,706.75 C363.12,708.97 363.00,709.00 354.20,709.00 L 345.27 709.00 L 339.38 692.50 L 321.83 692.23 ZM 167.29 709.98 C159.61,711.09 158.42,711.09 151.61,709.95 C145.37,708.90 141.58,707.37 136.16,703.71 C132.07,700.95 126.00,693.02 126.00,690.44 C126.00,689.80 129.25,687.91 133.22,686.24 L 140.45 683.21 L 142.08 685.90 C148.63,696.66 165.28,699.40 172.44,690.89 C178.26,683.98 173.57,677.65 160.00,674.13 C137.05,668.16 129.02,661.70 128.18,648.48 C127.66,640.31 129.28,635.66 134.47,630.48 C140.32,624.63 147.73,622.00 158.36,622.00 C170.53,622.00 176.01,623.96 183.11,630.87 C186.35,634.02 189.00,637.36 189.00,638.29 C189.00,639.40 186.78,640.98 182.54,642.91 L 176.08 645.84 L 172.25 642.02 C165.47,635.24 154.53,634.32 148.80,640.04 C145.15,643.70 145.04,648.21 148.54,651.45 C150.04,652.84 154.44,654.70 159.29,656.00 C171.87,659.36 177.42,661.51 182.32,664.87 C193.90,672.84 195.32,690.87 185.21,701.33 C180.23,706.49 175.43,708.80 167.29,709.98 ZM 537.29 709.98 C533.56,710.52 530.05,710.91 529.50,710.86 C517.20,709.60 510.31,707.09 504.30,701.65 C500.75,698.45 496.05,690.58 497.09,689.60 C498.71,688.08 511.54,683.12 511.80,683.91 C512.83,687.00 517.00,691.58 520.37,693.32 C529.50,698.03 541.57,695.67 544.53,688.59 C547.62,681.19 543.89,677.96 526.48,672.99 C507.98,667.71 500.05,660.81 499.21,649.24 C498.41,638.12 502.74,630.22 512.35,625.29 C516.44,623.19 519.33,622.55 526.39,622.19 C537.48,621.63 544.43,623.13 550.42,627.39 C555.05,630.68 560.00,636.41 560.00,638.48 C560.00,639.08 557.11,641.00 553.57,642.74 L 547.15 645.91 L 543.29 642.05 C536.47,635.23 525.54,634.30 519.80,640.04 C513.88,645.97 517.64,652.45 528.82,655.57 C546.39,660.46 552.38,663.29 557.27,669.00 C561.54,673.99 563.47,680.38 562.69,686.96 C561.20,699.59 552.09,707.84 537.29,709.98 ZM 864.54 707.90 C849.31,713.60 828.95,709.84 820.45,699.77 C817.75,696.56 814.52,690.14 815.25,689.41 C815.46,689.21 818.82,687.72 822.73,686.11 L 829.83 683.18 L 831.06 686.15 C836.44,699.13 863.40,698.73 863.40,685.68 C863.40,679.43 859.95,677.20 843.15,672.55 C824.31,667.34 817.02,659.82 817.01,645.57 C816.99,635.85 823.18,627.97 834.00,623.89 C838.58,622.16 841.17,621.88 849.50,622.21 C860.56,622.65 865.61,624.49 871.84,630.36 C874.93,633.27 878.57,638.81 877.82,639.47 C877.65,639.63 874.68,641.18 871.23,642.90 L 864.96 646.05 L 861.23 642.13 C854.85,635.43 844.34,634.32 837.97,639.68 C835.73,641.56 835.00,643.03 835.00,645.64 C835.00,650.87 838.38,653.31 850.03,656.51 C873.55,662.96 882.24,671.50 880.69,686.64 C879.72,696.18 873.30,704.62 864.54,707.90 ZM 770.52 708.45 C743.03,715.98 718.20,702.17 712.39,676.13 C707.78,655.46 718.08,633.95 736.78,625.18 C742.06,622.70 743.49,622.50 755.50,622.50 C767.41,622.50 768.96,622.72 774.05,625.10 C777.10,626.53 781.22,629.13 783.21,630.88 C786.87,634.09 793.00,642.78 793.00,644.75 C793.00,646.35 777.61,651.32 777.12,649.87 C776.24,647.21 769.21,640.55 765.50,638.87 C757.18,635.08 745.89,636.99 738.20,643.48 C730.33,650.12 726.95,664.45 730.44,676.44 C734.79,691.39 753.07,699.37 767.54,692.63 C772.06,690.53 776.50,686.50 778.77,682.44 C779.47,681.20 780.51,681.30 786.04,683.13 C789.59,684.30 792.88,685.61 793.35,686.03 C794.67,687.23 793.21,690.55 789.04,695.83 C784.36,701.75 777.21,706.62 770.52,708.45 ZM 624.00 639.00 L 624.00 709.00 L 607.00 709.00 L 607.00 639.00 L 580.00 639.00 L 580.00 624.00 L 648.84 624.00 L 649.17 631.50 L 649.50 639.00 ZM 409.00 639.00 L 409.00 709.00 L 392.00 709.00 L 392.00 639.00 L 366.00 639.00 L 366.00 624.00 L 435.00 624.00 L 435.00 639.00 ZM 253.00 639.00 L 253.00 709.00 L 236.00 709.00 L 236.00 639.00 L 209.50 639.00 L 209.83 631.50 L 210.16 624.00 L 278.00 624.00 L 278.00 639.00 ZM 473.00 624.00 L 473.00 709.00 L 456.00 709.00 L 456.00 624.00 ZM 688.00 624.00 L 688.00 709.00 L 671.00 709.00 L 671.00 624.00 ZM 310.23 674.75 C309.89,675.70 312.54,676.00 321.39,676.00 C327.78,676.00 333.00,675.62 333.00,675.15 C333.00,674.13 322.25,643.92 321.69,643.35 C321.47,643.13 318.90,649.83 315.98,658.23 C313.07,666.63 310.48,674.06 310.23,674.75 Z" fill="rgb(49,69,77)"/>
</g>
</svg>