<svg xmlns="http://www.w3.org/2000/svg" viewBox="0 0 262 258">
  <!-- Green square background -->
  <rect width="262" height="258" fill="rgb(2,169,98)"/>
  <!-- Black human figure - centered and scaled to fit inside the square -->
  <g transform="translate(131, 129) scale(0.35) translate(-400, -666)">
    <path d="M 304.28 691.95 L 298.27 708.50 L 289.17 708.79 L 280.06 709.07 L 283.44 699.79 C285.29,694.68 291.85,676.78 298.01,660.00 C304.16,643.22 309.65,628.26 310.20,626.75 L 311.20 624.00 L 331.66 624.00 L 332.72 627.25 C333.30,629.04 340.08,647.15 347.77,667.50 C355.47,687.85 362.07,705.51 362.45,706.75 C363.12,708.97 363.00,709.00 354.20,709.00 L 345.27 709.00 L 339.38 692.50 L 321.83 692.23 ZM 167.29 709.98 C159.61,711.09 158.42,711.09 151.61,709.95 C145.37,708.90 141.58,707.37 136.16,703.71 C132.07,700.95 126.00,693.02 126.00,690.44 C126.00,689.80 129.25,687.91 133.22,686.24 L 140.45 683.21 L 142.08 685.90 C148.63,696.66 165.28,699.40 172.44,690.89 C178.26,683.98 173.57,677.65 160.00,674.13 C137.05,668.16 129.02,661.70 128.18,648.48 C127.66,640.31 129.28,635.66 134.47,630.48 C140.32,624.63 147.73,622.00 158.36,622.00 C170.53,622.00 176.01,623.96 183.11,630.87 C186.35,634.02 189.00,637.36 189.00,638.29 C189.00,639.40 186.78,640.98 182.54,642.91 L 176.08 645.84 L 172.25 642.02 C165.47,635.24 154.53,634.32 148.80,640.04 C145.15,643.70 145.04,648.21 148.54,651.45 C150.04,652.84 154.44,654.70 159.29,656.00 C171.87,659.36 177.42,661.51 182.32,664.87 C193.90,672.84 195.32,690.87 185.21,701.33 C180.23,706.49 175.43,708.80 167.29,709.98 ZM 537.29 709.98 C533.56,710.52 530.05,710.91 529.50,710.86 C517.20,709.60 510.31,707.09 504.30,701.65 C500.75,698.45 496.05,690.58 497.09,689.60 C498.71,688.08 511.54,683.12 511.80,683.91 C512.83,687.00 517.00,691.58 520.37,693.32 C529.50,698.03 541.57,695.67 544.53,688.59 C547.62,681.19 543.89,677.96 526.48,672.99 C507.98,667.71 500.05,660.81 499.21,649.24 C498.41,638.12 502.74,630.22 512.35,625.29 C516.44,623.19 519.33,622.55 526.39,622.19 C537.48,621.63 544.43,623.13 550.42,627.39 C555.05,630.68 560.00,636.41 560.00,638.48 C560.00,639.08 557.11,641.00 553.57,642.74 L 547.15 645.91 L 543.29 642.05 C536.47,635.23 525.54,634.30 519.80,640.04 C513.88,645.97 517.64,652.45 528.82,655.57 C546.39,660.46 552.38,663.29 557.27,669.00 C561.54,673.99 563.47,680.38 562.69,686.96 C561.20,699.59 552.09,707.84 537.29,709.98 ZM 864.54 707.90 C849.31,713.60 828.95,709.84 820.45,699.77 C817.75,696.56 814.52,690.14 815.25,689.41 C815.46,689.21 818.82,687.72 822.73,686.11 L 829.83 683.18 L 831.06 686.15 C836.44,699.13 863.40,698.73 863.40,685.68 C863.40,679.43 859.95,677.20 843.15,672.55 C824.31,667.34 817.02,659.82 817.01,645.57 C816.99,635.85 823.18,627.97 834.00,623.89 C838.58,622.16 841.17,621.88 849.50,622.21 C860.56,622.65 865.61,624.49 871.84,630.36 C874.93,633.27 878.57,638.81 877.82,639.47 C877.65,639.63 874.68,641.18 871.23,642.90 L 864.96 646.05 L 861.23 642.13 C854.85,635.43 844.34,634.32 837.97,639.68 C835.73,641.56 835.00,643.03 835.00,645.64 C835.00,650.87 838.38,653.31 850.03,656.51 C873.55,662.96 882.24,671.50 880.69,686.64 C879.72,696.18 873.30,704.62 864.54,707.90 ZM 770.52 708.45 C743.03,715.98 718.20,702.17 712.39,676.13 C707.78,655.46 718.08,633.95 736.78,625.18 C742.06,622.70 743.49,622.50 755.50,622.50 C767.41,622.50 768.96,622.72 774.05,625.10 C777.10,626.53 781.22,629.13 783.21,630.88 C786.87,634.09 793.00,642.78 793.00,644.75 C793.00,646.35 777.61,651.32 777.12,649.87 C776.24,647.21 769.21,640.55 765.50,638.87 C757.18,635.08 745.89,636.99 738.20,643.48 C730.33,650.12 726.95,664.45 730.44,676.44 C734.79,691.39 753.07,699.37 767.54,692.63 C772.06,690.53 776.50,686.50 778.77,682.44 C779.47,681.20 780.51,681.30 786.04,683.13 C789.59,684.30 792.88,685.61 793.35,686.03 C794.67,687.23 793.21,690.55 789.04,695.83 C784.36,701.75 777.21,706.62 770.52,708.45 ZM 624.00 639.00 L 624.00 709.00 L 607.00 709.00 L 607.00 639.00 L 580.00 639.00 L 580.00 624.00 L 648.84 624.00 L 649.17 631.50 L 649.50 639.00 ZM 409.00 639.00 L 409.00 709.00 L 392.00 709.00 L 392.00 639.00 L 366.00 639.00 L 366.00 624.00 L 435.00 624.00 L 435.00 639.00 ZM 253.00 639.00 L 253.00 709.00 L 236.00 709.00 L 236.00 639.00 L 209.50 639.00 L 209.83 631.50 L 210.16 624.00 L 278.00 624.00 L 278.00 639.00 ZM 473.00 624.00 L 473.00 709.00 L 456.00 709.00 L 456.00 624.00 ZM 688.00 624.00 L 688.00 709.00 L 671.00 709.00 L 671.00 624.00 ZM 310.23 674.75 C309.89,675.70 312.54,676.00 321.39,676.00 C327.78,676.00 333.00,675.62 333.00,675.15 C333.00,674.13 322.25,643.92 321.69,643.35 C321.47,643.13 318.90,649.83 315.98,658.23 C313.07,666.63 310.48,674.06 310.23,674.75 Z" fill="rgb(49,69,77)"/>
  </g>
</svg>
